# xmcd CD database file
#
# Track frame offsets:
#	150
#	14250
#	30215
#	42800
#	55517
#	67517
#	84382
#	98265
#	111235
#	124530
#
# Disc length: 1816 seconds
#
# Revision: 0
# Processed by: cddbd v1.5.2PL0 Copyright (c) Steve Scherf et al.
# Submitted via: CDex 1.70beta2
#
DISCID=5d07160a
DTITLE=Merle Haggard - The Ballad Singer
DYEAR=1900
DGENRE=Country
TTITLE0=Always Wanting You
TTITLE1=It's All In The Movies
TTITLE2=I'm Always On A Mountain When I Fall
TTITLE3=Emptiest Arms In The World
TTITLE4=Things Aren't Funny Any More
TTITLE5=Today I Started Loving You Again
TTITLE6=I Threw Away The Rose
TTITLE7=Misery And Gin
TTITLE8=Holdin' Things Together
TTITLE9=Turnin' Off A Memory
EXTD=
EXTT0=
EXTT1=
EXTT2=
EXTT3=
EXTT4=
EXTT5=
EXTT6=
EXTT7=
EXTT8=
EXTT9=
PLAYORDER=
